<?xml version="1.0" encoding="UTF-8" standalone="no"?>
<!-- Created with Inkscape (http://www.inkscape.org/) -->

<svg
   width="123.41958mm"
   height="20.010038mm"
   viewBox="0 0 123.41958 20.010038"
   version="1.1"
   id="svg1"
   xml:space="preserve"
   xmlns="http://www.w3.org/2000/svg"
   xmlns:svg="http://www.w3.org/2000/svg"><defs
     id="defs1" /><g
     id="layer1"
     transform="translate(-44.182042,-138.495)"><g
       id="g6"><path
         d="m 135.47518,151.075 -0.58113,7.49656 h -1.5981 l -0.58113,-7.49656 z m 11.85493,20.74627 h -2.61508 v -18.45081 h -6.47958 V 151.075 h 15.54518 v 2.29546 h -6.45052 z"
         id="text6"
         style="font-size:29.0564px;fill:#1a1a1a;stroke:#000000;stroke-width:0.758701;stroke-linecap:square;stroke-miterlimit:0;stroke-opacity:0.870019;paint-order:stroke fill markers"
         transform="scale(1.0871928,0.91980005)"
         aria-label="'T" /><g
         id="g5"
         transform="translate(8.057965,4.7918494)"><path
           style="fill:#000000"
           d="m 103.84983,143.72648 v -9.46506 h 2.03832 2.03831 v 9.46506 9.46505 h -2.03831 -2.03832 z"
           id="path5" /><path
           style="fill:#000000"
           d="m 82.699766,143.72648 v -9.46506 h 6.94238 6.942393 v 1.5136 1.5136 h -4.94443 -4.944433 v 2.26015 2.26015 l 4.873653,0.0103 4.87366,0.0102 4.2e-4,1.44636 c 2.4e-4,0.7955 -0.009,1.45907 -0.02,1.47459 -0.0112,0.0155 -2.20005,0.0276 -4.86399,0.0269 l -4.843523,-10e-4 -0.0104,2.59314 -0.0104,2.59315 4.934643,0.0103 4.93464,0.0103 0.0106,1.60441 0.0106,1.60442 h -6.942853 -6.94285 z"
           id="path4" /><path
           style="fill:#000000"
           d="m 58.226505,153.16462 c -0.0148,-0.0148 -0.02691,-4.27407 -0.02691,-9.46505 v -9.43815 h 2.038317 2.038316 v 3.75373 3.75374 h 4.137178 4.137178 v -3.75374 -3.75373 h 2.038312 2.03833 v 9.46506 9.46505 h -2.03833 -2.038312 v -4.19772 -4.19772 h -4.137178 -4.137178 v 4.19772 4.19772 H 60.26482 c -1.106275,0 -2.023517,-0.0121 -2.038317,-0.0269 z"
           id="path3" /><path
           style="fill:#000000"
           d="m 43.260181,153.50831 c -2.11832,-0.085 -3.770829,-0.51275 -5.369694,-1.38995 -0.426989,-0.23426 -1.771616,-1.10602 -1.766396,-1.14521 0.0028,-0.0209 2.356222,-2.16366 2.715283,-2.47224 l 0.174328,-0.14982 0.319615,0.22357 c 1.366246,0.95569 2.660161,1.39388 4.396247,1.48882 0.79437,0.0434 1.607368,-0.11957 2.152824,-0.43165 0.323231,-0.18493 0.700362,-0.55796 0.857993,-0.84866 0.132694,-0.24471 0.137475,-0.26897 0.137475,-0.69752 0,-0.40448 -0.01039,-0.46649 -0.116751,-0.6968 -0.200391,-0.43391 -0.757871,-0.88718 -1.507062,-1.22534 -0.547585,-0.24717 -1.265154,-0.51856 -2.329961,-0.88124 -1.214556,-0.41367 -1.799446,-0.63724 -2.484745,-0.94974 -1.061141,-0.4839 -1.94029,-1.11109 -2.518558,-1.79675 -0.827868,-0.98162 -1.154733,-1.876 -1.157987,-3.16851 -0.0035,-1.3852 0.476844,-2.52032 1.495298,-3.5337 1.071831,-1.06649 2.66983,-1.75453 4.502769,-1.93872 0.937773,-0.0942 2.641954,2.1e-4 3.704809,0.20532 1.441479,0.27818 2.858637,0.92087 3.952033,1.79226 l 0.230102,0.18338 -0.230102,0.2172 c -0.126557,0.11945 -0.763643,0.70169 -1.415748,1.29386 l -1.185645,1.07667 -0.126143,-0.10204 c -0.742347,-0.6005 -1.73569,-1.05455 -2.648812,-1.21073 -0.543311,-0.0929 -1.407294,-0.12439 -1.807871,-0.0658 -0.989678,0.14471 -1.783038,0.65508 -2.138977,1.37601 -0.09649,0.19542 -0.109416,0.26789 -0.108025,0.60544 0.0021,0.50673 0.09915,0.75817 0.428622,1.11038 0.551431,0.58948 1.448414,1.02117 3.725229,1.79283 1.362846,0.46189 1.970773,0.70157 2.65407,1.04638 1.279595,0.64572 2.184787,1.41168 2.728823,2.30911 0.567393,0.93596 0.806353,2.28842 0.608161,3.44207 -0.254072,1.47893 -1.398074,2.86749 -3.043595,3.69426 -1.417442,0.71216 -2.677229,0.93316 -4.827609,0.84688 z"
           id="path2" /><path
           style="fill:#000000"
           d="m 125.36315,148.78036 -5.30769,-4.9296 -0.0202,4.61993 -0.0202,4.61994 -2.00804,0.0105 -2.00805,0.0105 v -9.71097 c 0,-5.34104 0.0152,-9.70492 0.0338,-9.69752 0.0186,0.007 2.42069,2.22805 5.33797,4.93478 l 5.30413,4.92133 0.0103,-4.66906 0.0103,-4.66906 h 1.99779 1.99778 v 9.74759 c 0,5.36118 -0.005,9.74618 -0.0101,9.74445 -0.006,-0.002 -2.39855,-2.22147 -5.31779,-4.93274 z"
           id="path1" /></g></g></g></svg>
